<?xml version="1.0" encoding="UTF-8" standalone="no"?>
<!-- Created with Inkscape (http://www.inkscape.org/) -->

<svg
   width="16"
   height="16"
   viewBox="0 0 4.2333332 4.2333335"
   version="1.1"
   id="svg5135"
   inkscape:version="1.1.1 (3bf5ae0d25, 2021-09-20)"
   sodipodi:docname="material.svg"
   inkscape:export-filename="D:\programming\free2ki\icons\material.png"
   inkscape:export-xdpi="768.00006"
   inkscape:export-ydpi="768.00006"
   xmlns:inkscape="http://www.inkscape.org/namespaces/inkscape"
   xmlns:sodipodi="http://sodipodi.sourceforge.net/DTD/sodipodi-0.dtd"
   xmlns="http://www.w3.org/2000/svg"
   xmlns:svg="http://www.w3.org/2000/svg">
  <sodipodi:namedview
     id="namedview5137"
     pagecolor="#505050"
     bordercolor="#eeeeee"
     borderopacity="1"
     inkscape:pageshadow="0"
     inkscape:pageopacity="0"
     inkscape:pagecheckerboard="0"
     inkscape:document-units="mm"
     showgrid="false"
     units="px"
     inkscape:snap-bbox="true"
     inkscape:bbox-paths="true"
     inkscape:bbox-nodes="true"
     inkscape:snap-bbox-edge-midpoints="true"
     inkscape:snap-bbox-midpoints="true"
     inkscape:snap-page="true"
     inkscape:zoom="2.828427"
     inkscape:cx="23.511302"
     inkscape:cy="53.209788"
     inkscape:window-width="1920"
     inkscape:window-height="1017"
     inkscape:window-x="1912"
     inkscape:window-y="-8"
     inkscape:window-maximized="1"
     inkscape:current-layer="layer1" />
  <defs
     id="defs5132" />
  <g
     inkscape:label="Layer 1"
     inkscape:groupmode="layer"
     id="layer1">
    <rect
       style="display:none;fill:#242222;fill-opacity:1;stroke-width:1.00038;stroke-linecap:square;stroke-linejoin:bevel;stroke-dashoffset:3.77953"
       id="rect7482"
       width="4.2333336"
       height="4.2333336"
       x="2.2637329e-16"
       y="2.3290838e-16" />
    <rect
       style="display:none;fill:#f0f0f0;fill-opacity:1;stroke-width:1.00038;stroke-linecap:square;stroke-linejoin:bevel;stroke-dashoffset:3.77953"
       id="rect6819"
       width="4.2333336"
       height="4.2333336"
       x="2.2637329e-16"
       y="2.3290838e-16" />
    <circle
       style="display:inline;fill:#8a1a1a;fill-opacity:1;stroke:none;stroke-width:0.1;stroke-linecap:square;stroke-linejoin:bevel;stroke-miterlimit:4;stroke-dasharray:none;stroke-dashoffset:3.77953;stroke-opacity:1"
       id="path11052"
       cx="2.1166666"
       cy="2.1166666"
       r="1.7197917" />
    <g
       inkscape:export-ydpi="96"
       inkscape:export-xdpi="96"
       inkscape:export-filename="C:\Users\Andrzej Ambroż\Desktop\mtrx.png"
       transform="matrix(0.22930591,0,0,0.22930591,-53.833976,-98.319321)"
       id="g5914"
       style="display:inline;fill:#ffffff;stroke-width:1.15384;enable-background:new">
      <g
         id="g5912"
         style="fill:#ffffff;stroke-width:1.15384">
        <path
           style="opacity:1;vector-effect:none;fill:#d92727;fill-opacity:1;stroke:none;stroke-width:1;stroke-linecap:round;stroke-linejoin:round;stroke-miterlimit:4;stroke-dasharray:none;stroke-dashoffset:0;stroke-opacity:1;marker:none"
           d="m 202,494 c -3.86008,0 -7,3.13992 -7,7 0,3.86008 3.13992,7 7,7 3.86008,0 7,-3.13992 7,-7 0,-3.86008 -3.13992,-7 -7,-7 z m 0,1 c 3.3058,0 5.97583,2.65852 5.99805,5.95898 C 206.88654,501.90262 204.99536,503 202,503 v 4 c -3.31963,0 -6,-2.68037 -6,-6 0,-0.0145 0.002,-0.0285 0.002,-0.043 1.1112,0.94401 3.00099,2.043 5.998,2.043 z"
           transform="matrix(1.1538444,0,0,1.1538444,10.923433,-140.07605)"
           id="path5908"
           inkscape:connector-curvature="0" />
      </g>
    </g>
    <g
       id="g5247"
       style="display:none;fill:#e5e5e5;fill-opacity:1;stroke:#e5e5e5;stroke-width:0.222373;stroke-miterlimit:4;stroke-dasharray:none;stroke-opacity:1"
       transform="matrix(0.44958686,0,0,0.44980222,1.5220783,1.5214069)">
      <path
         style="color:#000000;font-style:normal;font-variant:normal;font-weight:normal;font-stretch:normal;font-size:medium;line-height:normal;font-family:sans-serif;font-variant-ligatures:normal;font-variant-position:normal;font-variant-caps:normal;font-variant-numeric:normal;font-variant-alternates:normal;font-feature-settings:normal;text-indent:0;text-align:start;text-decoration:none;text-decoration-line:none;text-decoration-style:solid;text-decoration-color:#000000;letter-spacing:normal;word-spacing:normal;text-transform:none;writing-mode:lr-tb;direction:ltr;text-orientation:mixed;dominant-baseline:auto;baseline-shift:baseline;text-anchor:start;white-space:normal;shape-padding:0;clip-rule:nonzero;display:inline;overflow:visible;visibility:visible;isolation:auto;mix-blend-mode:normal;color-interpolation:sRGB;color-interpolation-filters:linearRGB;solid-color:#000000;solid-opacity:1;fill:#e5e5e5;fill-opacity:1;fill-rule:nonzero;stroke:#e5e5e5;stroke-width:0.222373;stroke-linecap:round;stroke-linejoin:round;stroke-miterlimit:4;stroke-dasharray:none;stroke-dashoffset:0;stroke-opacity:1;marker:none;paint-order:fill markers stroke;color-rendering:auto;image-rendering:auto;shape-rendering:auto;text-rendering:auto;enable-background:new"
         d="m 3.7773072,-1.323615 a 0.18900698,0.18900698 0 0 0 -0.1860429,0.1919414 v 1.43365129 l -0.8009858,-0.8002457 a 0.18900698,0.18900698 0 0 0 -0.00857,-0.00957 c -3.713e-4,-5.672e-4 -7.571e-4,-9.072e-4 -0.00143,-0.00143 a 0.18900698,0.18900698 0 0 0 -0.070857,-0.0457714 C 2.0328501,-1.208135 1.2844644,-1.4363793 0.49472154,-1.263745 c -0.826743,0.1807242 -1.50617164,0.77600409 -1.80498604,1.57834559 a 0.18900698,0.18900698 0 1 0 0.35435724,0.1314 c 0.2548144,-0.6842057 0.8312572,-1.1876529 1.5311002,-1.3406342 0.70984286,-0.15516999 1.30782846,0.011143 1.93638566,0.6511227 a 0.18900698,0.18900698 0 0 0 7.571e-4,7.558e-4 0.18900698,0.18900698 0 0 0 7.573e-4,7.571e-4 0.18900698,0.18900698 0 0 0 0.012857,0.011857 l 0.798757,0.7994702 H 1.8910644 a 0.18900698,0.18900698 0 1 0 0,0.3779757 H 3.7809357 A 0.18900698,0.18900698 0 0 0 3.9699358,0.75831779 V -1.1315636 A 0.18900698,0.18900698 0 0 0 3.777993,-1.323505 Z"
         id="path13235"
         inkscape:connector-curvature="0" />
      <path
         style="color:#000000;font-style:normal;font-variant:normal;font-weight:normal;font-stretch:normal;font-size:medium;line-height:normal;font-family:sans-serif;font-variant-ligatures:normal;font-variant-position:normal;font-variant-caps:normal;font-variant-numeric:normal;font-variant-alternates:normal;font-feature-settings:normal;text-indent:0;text-align:start;text-decoration:none;text-decoration-line:none;text-decoration-style:solid;text-decoration-color:#000000;letter-spacing:normal;word-spacing:normal;text-transform:none;writing-mode:lr-tb;direction:ltr;text-orientation:mixed;dominant-baseline:auto;baseline-shift:baseline;text-anchor:start;white-space:normal;shape-padding:0;clip-rule:nonzero;display:inline;overflow:visible;visibility:visible;isolation:auto;mix-blend-mode:normal;color-interpolation:sRGB;color-interpolation-filters:linearRGB;solid-color:#000000;solid-opacity:1;fill:#e5e5e5;fill-opacity:1;fill-rule:nonzero;stroke:#e5e5e5;stroke-width:0.222373;stroke-linecap:round;stroke-linejoin:round;stroke-miterlimit:4;stroke-dasharray:none;stroke-dashoffset:0;stroke-opacity:1;marker:none;paint-order:fill markers stroke;color-rendering:auto;image-rendering:auto;shape-rendering:auto;text-rendering:auto;enable-background:new"
         d="m -1.1341788,1.700195 a 0.18900698,0.18900698 0 0 0 -0.1889857,0.1889885 v 1.8898816 a 0.18900698,0.18900698 0 1 0 0.37798584,0 v -1.433653 l 0.8009857,0.8009815 a 0.18900698,0.18900698 0 0 0 0.00857,0.01 l 0.00143,7.571e-4 c 2.857e-4,2.715e-4 3.857e-4,4.572e-4 7.57e-4,7.572e-4 a 0.18900698,0.18900698 0 0 0 0.070144,0.045714 c 0.6765773,0.6531 1.42496286,0.8813429 2.21470576,0.7087 0.8267428,-0.1807286 1.5061714,-0.776 1.8049857,-1.5783444 A 0.18910027,0.18910028 0 1 0 3.6020357,2.201835 C 3.3472216,2.8860364 2.7707785,3.3902222 2.0709358,3.5432079 1.3610929,3.6983793 0.76310734,3.5317793 0.13455004,2.8913507 a 0.18900698,0.18900698 0 0 0 -0.00143,-0.00143 l -0.0128557,-0.011427 -0.7987715,-0.7995115 h 1.4336574 a 0.18900698,0.18900698 0 1 0 0,-0.3779771 z"
         id="path13252"
         inkscape:connector-curvature="0" />
    </g>
  </g>
</svg>
