<?xml version="1.0" encoding="UTF-8" standalone="no"?>
<svg
   viewBox="0 0 64 64"
   version="1.1"
   id="svg5496"
   width="64"
   height="64"
   xmlns:xlink="http://www.w3.org/1999/xlink"
   xmlns="http://www.w3.org/2000/svg"
   xmlns:svg="http://www.w3.org/2000/svg"
   xmlns:rdf="http://www.w3.org/1999/02/22-rdf-syntax-ns#"
   xmlns:cc="http://creativecommons.org/ns#"
   xmlns:dc="http://purl.org/dc/elements/1.1/">
  <metadata
     id="metadata5500">
    <rdf:RDF>
      <cc:Work
         rdf:about="">
        <dc:format>image/svg+xml</dc:format>
        <dc:type
           rdf:resource="http://purl.org/dc/dcmitype/StillImage" />
        <dc:title>app_icon</dc:title>
        <cc:license
           rdf:resource="http://creativecommons.org/licenses/by-sa/4.0/" />
      </cc:Work>
      <cc:License
         rdf:about="http://creativecommons.org/licenses/by-sa/4.0/">
        <cc:permits
           rdf:resource="http://creativecommons.org/ns#Reproduction" />
        <cc:permits
           rdf:resource="http://creativecommons.org/ns#Distribution" />
        <cc:requires
           rdf:resource="http://creativecommons.org/ns#Notice" />
        <cc:requires
           rdf:resource="http://creativecommons.org/ns#Attribution" />
        <cc:permits
           rdf:resource="http://creativecommons.org/ns#DerivativeWorks" />
        <cc:requires
           rdf:resource="http://creativecommons.org/ns#ShareAlike" />
      </cc:License>
    </rdf:RDF>
  </metadata>
  <defs
     id="defs5435">
    <style
       id="style5390">.cls-1{fill:none;}.cls-2{isolation:isolate;}.cls-15,.cls-3{mix-blend-mode:overlay;}.cls-4{clip-path:url(#clip-path);}.cls-16,.cls-5{opacity:0.75;}.cls-5,.cls-7{mix-blend-mode:multiply;}.cls-6{clip-path:url(#clip-path-2);}.cls-7{opacity:0.6;}.cls-8{fill:url(#gradient_10);}.cls-9{mix-blend-mode:saturation;fill:url(#gradient_28);}.cls-10{clip-path:url(#clip-path-3);}.cls-11,.cls-16{fill:#fff;}.cls-12{fill:url(#gradient_114);}.cls-13{fill:url(#gradient_104);}.cls-14{fill:#ff6d00;}.cls-15{opacity:0.5;}</style>
    <clipPath
       id="clip-path">
      <rect
         class="cls-1"
         y="123.3231"
         width="94"
         height="94"
         rx="20.888901"
         id="rect5392"
         x="0" />
    </clipPath>
    <clipPath
       id="clip-path-2">
      <rect
         class="cls-1"
         x="119.6252"
         width="100"
         height="100"
         rx="22.2222"
         id="rect5395"
         y="0" />
    </clipPath>
    <linearGradient
       id="gradient_10"
       x1="50.0093"
       x2="50.0093"
       y2="100"
       gradientUnits="userSpaceOnUse"
       gradientTransform="matrix(1.0044845,0,0,1.0075283,-17.708947,-14.870139)">
      <stop
         offset="0"
         stop-color="#2b4bb7"
         id="stop5398" />
      <stop
         offset="1"
         stop-color="#2b2fb7"
         id="stop5400" />
    </linearGradient>
    <radialGradient
       id="gradient_28"
       cx="50.0093"
       cy="23.271601"
       r="28.023199"
       gradientTransform="matrix(0,-1.0075283,1.7909957,0,-9.1551595,58.962443)"
       gradientUnits="userSpaceOnUse">
      <stop
         offset="0"
         stop-color="#2b4bed"
         id="stop5403" />
      <stop
         offset="1"
         stop-color="#2b2fb7"
         id="stop5405" />
    </radialGradient>
    <clipPath
       id="clip-path-3">
      <rect
         class="cls-1"
         x="0.0093"
         width="100"
         height="100"
         rx="22.2222"
         id="rect5408"
         y="0" />
    </clipPath>
    <radialGradient
       id="gradient_114"
       cx="47.3605"
       cy="53.197102"
       r="38.302299"
       gradientUnits="userSpaceOnUse">
      <stop
         offset="0.0007"
         stop-color="#fff"
         stop-opacity="0"
         id="stop5411" />
      <stop
         offset="0.1476"
         stop-color="#fbfbfb"
         stop-opacity="0.039"
         id="stop5413" />
      <stop
         offset="0.3723"
         stop-color="#f1f1f1"
         stop-opacity="0.1465"
         id="stop5415" />
      <stop
         offset="0.6466"
         stop-color="#e0e0e0"
         stop-opacity="0.3222"
         id="stop5417" />
      <stop
         offset="0.9576"
         stop-color="#c9c9c8"
         stop-opacity="0.5641"
         id="stop5419" />
      <stop
         offset="1"
         stop-color="#c6c6c5"
         stop-opacity="0.6"
         id="stop5421" />
    </radialGradient>
    <linearGradient
       id="gradient_104"
       x1="76.367302"
       y1="17.9571"
       x2="76.367302"
       y2="33.4328"
       gradientUnits="userSpaceOnUse">
      <stop
         offset="0"
         stop-color="#ff6d00"
         id="stop5424" />
      <stop
         offset="0.3523"
         stop-color="#ff8a33"
         id="stop5426" />
      <stop
         offset="0.8443"
         stop-color="#ff5c00"
         id="stop5428" />
      <stop
         offset="0.9688"
         stop-color="#ff4800"
         id="stop5430" />
      <stop
         offset="1"
         stop-color="#ff5c00"
         id="stop5432" />
    </linearGradient>
    <radialGradient
       xlink:href="#gradient_114"
       id="radialGradient6102"
       gradientUnits="userSpaceOnUse"
       cx="47.3605"
       cy="53.197102"
       r="38.302299"
       gradientTransform="matrix(1.0044845,0,0,1.0075283,-17.708947,-14.870139)" />
    <radialGradient
       xlink:href="#gradient_114"
       id="radialGradient6104"
       gradientUnits="userSpaceOnUse"
       cx="47.3605"
       cy="53.197102"
       r="38.302299"
       gradientTransform="matrix(1.0044845,0,0,1.0075283,-17.708947,-14.870139)" />
    <linearGradient
       xlink:href="#linearGradient3765"
       id="linearGradient3771"
       x1="98"
       y1="1047.3622"
       x2="81"
       y2="993.36218"
       gradientUnits="userSpaceOnUse"
       gradientTransform="translate(-60,-988.36218)" />
    <linearGradient
       id="linearGradient3765">
      <stop
         style="stop-color:#d3d7cf;stop-opacity:1;"
         offset="0"
         id="stop3767" />
      <stop
         style="stop-color:#ffffff;stop-opacity:1"
         offset="1"
         id="stop3769" />
    </linearGradient>
    <linearGradient
       xlink:href="#linearGradient3806"
       id="linearGradient3012"
       gradientUnits="userSpaceOnUse"
       gradientTransform="matrix(0.73269922,0,0,0.5925111,-26.386682,37.513214)"
       x1="48.014042"
       y1="26.323408"
       x2="43.478561"
       y2="42.076672" />
    <linearGradient
       id="linearGradient3806">
      <stop
         style="stop-color:#ef2929;stop-opacity:1"
         offset="0"
         id="stop3808" />
      <stop
         style="stop-color:#a40000;stop-opacity:1"
         offset="1"
         id="stop3810" />
    </linearGradient>
    <linearGradient
       xlink:href="#linearGradient3806"
       id="linearGradient10"
       x1="30.000372"
       y1="44.583008"
       x2="57.492489"
       y2="44.583008"
       gradientUnits="userSpaceOnUse"
       gradientTransform="translate(0,-4.9997631)" />
  </defs>
  <title
     id="title5437">app_icon</title>
  <g
     class="cls-2"
     id="g5494"
     transform="matrix(0.53633138,0,0,0.5355206,5.2338927,3.5805429)"
     style="stroke-width:2.19044">
    <rect
       class="cls-8"
       x="-0.43609735"
       width="100.68402"
       height="100.83646"
       rx="22.321856"
       id="rect5459"
       y="2.6506116"
       style="fill:url(#gradient_10);stroke-width:2.19044"
       ry="22.35565" />
    <rect
       class="cls-9"
       x="-0.43609735"
       width="100.68402"
       height="100.83646"
       rx="22.321856"
       id="rect5461"
       y="2.6506116"
       style="fill:url(#gradient_28);stroke-width:2.19044"
       ry="22.35565" />
    <g
       class="cls-3"
       id="g5469"
       style="stroke-width:2.17392"
       transform="matrix(1.0068401,0,0,1.0083645,-0.44546094,2.6506114)">
      <g
         class="cls-10"
         clip-path="url(#clip-path-3)"
         id="g5467"
         style="stroke-width:2.17392">
        <g
           class="cls-5"
           id="g5465"
           style="stroke-width:2.17392" />
      </g>
    </g>
    <g
       class="cls-7"
       id="g5473"
       style="stroke-width:2.1842"
       transform="matrix(1.0057237,0,0,1,-0.48582001,2.6345743)" />
    <path
       class="cls-11"
       d="M 30.906233,47.638291 42.086387,33.476316 q 3.426981,-4.330725 3.427686,-6.476323 A 3.300422,3.305419 0 0 0 45.31935,25.751537 h 19.516187 a 22.254188,22.287881 0 0 0 -5.564503,5.270621 Q 58.21949,32.27132 56.118215,34.88732 L 41.46275,53.138718 58.95398,77.249421 q 1.24526,1.717244 4.050619,4.915877 a 18.788845,18.817293 0 0 0 1.908969,1.677314 H 44.891141 a 6.3982678,6.4079551 0 0 0 0.232984,-1.59977 q 0,-2.144489 -2.960111,-6.203056 L 30.906233,60.669084 v 15.565821 q 0,5.423085 2.181721,7.607808 H 14.77907 a 6.9549497,6.9654798 0 0 0 1.948235,-3.472203 23.711085,23.746985 0 0 0 0.233486,-4.096178 V 33.320321 A 23.722061,23.757976 0 0 0 16.727305,29.224143 6.9572655,6.967799 0 0 0 14.77907,25.75194 h 18.308884 q -2.181721,2.185026 -2.181721,7.568381 z"
       id="path5475"
       style="stroke-width:2.19044" />
    <path
       class="cls-11"
       d="m 83.222955,41.16207 v 35.814285 a 25.157009,25.195098 0 0 0 0.155357,3.667322 6.2958722,6.3054043 0 0 0 1.636115,3.199036 H 67.874383 a 6.3068468,6.3163955 0 0 0 1.636115,-3.199036 25.895022,25.934228 0 0 0 0.155355,-3.667322 V 47.950279 A 24.950506,24.988281 0 0 0 69.510498,44.322385 6.4313929,6.4411302 0 0 0 67.913045,41.16207 Z M 76.443901,20.757914 a 7.8145899,7.8264215 0 0 1 7.791131,7.802927 7.7908285,7.8026241 0 0 1 -15.581657,0 7.7155168,7.7271984 0 0 1 7.790526,-7.802927 z"
       id="path5477"
       style="stroke-width:2.19044" />
    <path
       class="cls-12"
       d="M 30.906233,47.638291 42.086387,33.476316 q 3.426981,-4.330725 3.427686,-6.476323 A 3.300422,3.305419 0 0 0 45.31935,25.751537 h 19.516187 a 22.254188,22.287881 0 0 0 -5.564503,5.270621 Q 58.21949,32.27132 56.118215,34.88732 L 41.46275,53.138718 58.95398,77.249421 q 1.24526,1.717244 4.050619,4.915877 a 18.788845,18.817293 0 0 0 1.908969,1.677314 H 44.891141 a 6.3982678,6.4079551 0 0 0 0.232984,-1.59977 q 0,-2.144489 -2.960111,-6.203056 L 30.906233,60.669084 v 15.565821 q 0,5.423085 2.181721,7.607808 H 14.77907 a 6.9549497,6.9654798 0 0 0 1.948235,-3.472203 23.711085,23.746985 0 0 0 0.233486,-4.096178 V 33.320321 A 23.722061,23.757976 0 0 0 16.727305,29.224143 6.9572655,6.967799 0 0 0 14.77907,25.75194 h 18.308884 q -2.181721,2.185026 -2.181721,7.568381 z"
       id="path5479"
       style="fill:url(#radialGradient6102);stroke-width:2.19044" />
    <path
       class="cls-12"
       d="m 83.222955,41.16207 v 35.814285 a 25.157009,25.195098 0 0 0 0.155357,3.667322 6.2958722,6.3054043 0 0 0 1.636115,3.199036 H 67.874383 a 6.3068468,6.3163955 0 0 0 1.636115,-3.199036 25.895022,25.934228 0 0 0 0.155355,-3.667322 V 47.950279 A 24.950506,24.988281 0 0 0 69.510498,44.322385 6.4313929,6.4411302 0 0 0 67.913045,41.16207 Z M 76.443901,20.757914 a 7.8145899,7.8264215 0 0 1 7.791131,7.802927 7.7908285,7.8026241 0 0 1 -15.581657,0 7.7155168,7.7271984 0 0 1 7.790526,-7.802927 z"
       id="path5481"
       style="fill:url(#radialGradient6104);stroke-width:2.19044" />
    <g
       class="cls-15"
       id="g5489"
       style="stroke-width:2.1842"
       transform="matrix(1.0057237,0,0,1,-0.48582001,2.6345743)" />
    <path
       class="cls-16"
       d="m 16.962,33.455544 c -0.08487,-1.300791 -0.211437,-2.599766 -0.329941,-3.890675 a 4.3343462,4.3409085 0 0 0 -0.443514,-1.815056 15.481476,15.504916 0 0 0 -1.0157,-1.625786 l -0.243052,-0.342844 0.421766,-0.01009 q 4.432614,-0.110921 8.866738,-0.119492 c 1.47774,-0.02016 2.956183,0.009 4.434325,0.01431 1.478142,0.002 2.956989,0.0598 4.435332,0.08702 -1.477135,0.06746 -2.953867,0.165472 -4.431305,0.207824 -1.477437,0.04567 -2.954572,0.114751 -4.432311,0.135121 Q 19.791623,26.205697 15.3576,26.2181 l 0.178614,-0.352928 a 12.165851,12.18427 0 0 1 1.010867,1.708977 3.0507257,3.0553446 0 0 1 0.306684,0.980534 c 0.0447,0.333566 0.06393,0.65947 0.08296,0.986987 0.07874,1.305429 0.04189,2.610454 0.02527,3.913867 z"
       id="path5491"
       style="stroke-width:2.19044" />
    <ellipse
       style="fill:#ff6d00;fill-opacity:1;stroke-width:4.38088;stroke-linecap:round;stroke-linejoin:round"
       id="path6063"
       cx="76.170616"
       cy="28.789175"
       rx="8.1460009"
       ry="8.1583338" />
  </g>
  <g
     id="layer3"
     style="display:inline;stroke-width:2.19392"
     transform="matrix(0.79999442,0,0,0.79999442,14.300162,18.621321)">
    <path
       style="display:inline;fill:#ef2929;fill-opacity:1;fill-rule:evenodd;stroke:#280000;stroke-width:1.25001;stroke-linecap:round;stroke-linejoin:round;stroke-miterlimit:4;stroke-dasharray:none;stroke-opacity:1"
       d="m 49.000139,35.473596 v 5.625039 H 30.250008 v 7.49999 h 18.750131 v 5.625039 l 10.625074,-9.375002 z"
       id="path3343" />
    <path
       style="display:inline;fill:url(#linearGradient10);fill-rule:evenodd;stroke:#ef2929;stroke-width:1.25001;stroke-linecap:round;stroke-linejoin:round;stroke-miterlimit:4;stroke-dasharray:none;stroke-opacity:1"
       d="m 50.875095,39.223622 7.6e-5,3.750026 H 32.125002 v 3.749964 h 18.750169 v 3.750026 l 6.250025,-5.624976 z"
       id="path1" />
  </g>
</svg>
